<?xml version="1.0" encoding="UTF-8" standalone="no"?>
<!-- Created with Inkscape (http://www.inkscape.org/) -->

<svg
   width="53.396mm"
   height="53.396mm"
   viewBox="0 0 53.396001 53.396001"
   version="1.1"
   id="svg1"
   xml:space="preserve"
   inkscape:version="1.3.1 (91b66b0783, 2023-11-16)"
   sodipodi:docname="pslib-logo-icon.svg"
   inkscape:export-filename="pslib_logo.png"
   inkscape:export-xdpi="252.52753"
   inkscape:export-ydpi="252.52753"
   xmlns:inkscape="http://www.inkscape.org/namespaces/inkscape"
   xmlns:sodipodi="http://sodipodi.sourceforge.net/DTD/sodipodi-0.dtd"
   xmlns="http://www.w3.org/2000/svg"
   xmlns:svg="http://www.w3.org/2000/svg"><sodipodi:namedview
     id="namedview1"
     pagecolor="#ffffff"
     bordercolor="#000000"
     borderopacity="0.25"
     inkscape:showpageshadow="2"
     inkscape:pageopacity="0.0"
     inkscape:pagecheckerboard="0"
     inkscape:deskcolor="#d1d1d1"
     inkscape:document-units="mm"
     showguides="true"
     inkscape:zoom="4.5833574"
     inkscape:cx="74.945061"
     inkscape:cy="100.58129"
     inkscape:window-width="2400"
     inkscape:window-height="1261"
     inkscape:window-x="-9"
     inkscape:window-y="-9"
     inkscape:window-maximized="1"
     inkscape:current-layer="layer1"
     showgrid="false" /><defs
     id="defs1" /><g
     inkscape:label="Vrstva 1"
     inkscape:groupmode="layer"
     id="layer1"
     transform="translate(-22.630611,-99.966117)"><path
       id="path1"
       style="fill:#4154fa;fill-opacity:1;stroke-width:1.17087;stroke-dasharray:none"
       d="m 24.946227,126.96401 a 8.2359503,8.2359503 0 0 0 0.195842,11.64707 8.2359503,8.2359503 0 0 0 11.64538,-0.1973 8.2359503,8.2359503 0 0 0 0.306662,-0.36807 l 0.02574,0.0266 10.55336,-10.91428 a 14.220652,14.17551 44.036817 0 0 4.300821,9.63144 14.220652,14.17551 44.036817 0 0 20.078203,-0.30525 14.220652,14.17551 44.036817 0 0 -0.371494,-20.07543 14.220652,14.17551 44.036817 0 0 -20.07497,0.30525 14.220652,14.17551 44.036817 0 0 -0.805017,0.96108 l -12.10753,12.52163 a 8.2359503,8.2359503 0 0 0 -2.102783,-3.42613 8.2359503,8.2359503 0 0 0 -11.645481,0.19421 z m 3.074941,2.97328 a 3.9583636,3.9583636 0 0 1 5.597276,-0.0925 3.9583636,3.9583636 0 0 1 0.504136,5.07953 l -0.123911,0.12828 0.01283,0.0133 a 3.9583636,3.9583636 0 0 1 -0.29937,0.3756 3.9583636,3.9583636 0 0 1 -5.597175,0.0956 3.9583636,3.9583636 0 0 1 -0.09414,-5.59889 z m 26.699598,-10.06699 0.146154,-0.15129 a 9.7964496,9.8867407 44.036817 0 1 13.833991,-0.22785 9.7964496,9.8867407 44.036817 0 1 0.172528,13.91738 9.7964496,9.8867407 44.036817 0 1 -13.91688,0.29683 9.7964496,9.8867407 44.036817 0 1 -0.23583,-13.83543 z" /></g></svg>
