<?xml version="1.0" encoding="UTF-8" standalone="no"?>
<svg
   width="200"
   height="200"
   viewBox="0 0 200 200"
   fill="none"
   version="1.1"
   id="svg3"
   sodipodi:docname="logo_2023.svg"
   inkscape:version="1.3 (0e150ed6c4, 2023-07-21)"
   xmlns:inkscape="http://www.inkscape.org/namespaces/inkscape"
   xmlns:sodipodi="http://sodipodi.sourceforge.net/DTD/sodipodi-0.dtd"
   xmlns="http://www.w3.org/2000/svg"
   xmlns:svg="http://www.w3.org/2000/svg">
  <defs
     id="defs3" />
  <sodipodi:namedview
     id="namedview3"
     pagecolor="#ffffff"
     bordercolor="#999999"
     borderopacity="1"
     inkscape:showpageshadow="0"
     inkscape:pageopacity="0"
     inkscape:pagecheckerboard="0"
     inkscape:deskcolor="#d1d1d1"
     inkscape:zoom="3.22"
     inkscape:cx="118.01242"
     inkscape:cy="91.614907"
     inkscape:window-width="1920"
     inkscape:window-height="1001"
     inkscape:window-x="-9"
     inkscape:window-y="-9"
     inkscape:window-maximized="1"
     inkscape:current-layer="svg3" />
  <path
     d="m 15.523504,101.03842 c -2.605456,2.6922 -4.654674,5.87086 -6.0306785,9.35477 -1.3760007,3.48362 -2.0517985,7.20413 -1.9887931,10.94882 0.063006,3.74467 0.8635821,7.44043 2.3559983,10.87602 1.4924053,3.43558 3.6474313,6.54352 6.3419883,9.14674 5.44112,5.25592 12.748688,8.13669 20.315191,8.00852 7.566594,-0.12787 14.772212,-3.25438 20.031975,-8.69181 0.366543,-0.41427 0.720709,-0.83945 1.062501,-1.27434 l 0.08928,0.0919 36.563767,-37.78884 c 0.508857,12.60029 5.843457,24.53912 14.900657,33.34732 4.6516,4.49544 10.1406,8.03386 16.15408,10.41373 6.01317,2.37986 12.43326,3.55433 18.89283,3.45591 6.45987,-0.0981 12.83281,-1.46675 18.75524,-4.02783 5.92271,-2.56107 11.27854,-6.2645 15.7619,-10.89871 9.05307,-9.3586 14.00345,-21.93946 13.76213,-34.974669 -0.24131,-13.035206 -5.65459,-25.457253 -15.04915,-34.533575 -9.39338,-9.075262 -21.99784,-14.06226 -35.04133,-13.864079 -13.04318,0.198208 -25.4573,5.565332 -34.51154,14.920979 -0.97853,1.067508 -1.90903,2.177741 -2.78914,3.32775 L 63.151956,112.2312 c -1.410775,-4.49485 -3.913811,-8.57041 -7.28547,-11.86251 C 50.426987,95.111296 43.12001,92.228465 35.553475,92.354575 27.986912,92.480684 20.78035,95.60542 15.519054,101.04137 Z m 10.653621,10.2947 c 1.252283,-1.29351 2.74727,-2.32801 4.399567,-3.04431 1.652328,-0.71599 3.429586,-1.09991 5.230358,-1.12967 1.800683,-0.0297 3.589786,0.29523 5.26486,0.95643 1.675075,0.66119 3.203415,1.6459 4.497804,2.89726 2.320944,2.25435 3.769433,5.25622 4.089126,8.47465 0.319399,3.21845 -0.510036,6.44631 -2.342452,9.11257 l -0.429303,0.44403 0.04449,0.0459 c -0.319105,0.45406 -0.665611,0.88837 -1.037162,1.30058 -1.251665,1.2941 -2.746121,2.32949 -4.397917,3.04636 -1.652093,0.71717 -3.429115,1.10198 -5.229769,1.13292 -1.800742,0.0306 -3.589903,-0.29347 -5.265332,-0.95377 -1.675458,-0.66031 -3.204387,-1.64384 -4.499454,-2.89462 -1.295597,-1.25108 -2.331786,-2.74523 -3.049402,-4.39674 -0.717614,-1.65149 -1.102513,-3.42792 -1.132803,-5.22822 -0.03025,-1.80029 0.294707,-3.5888 0.956369,-5.26357 0.661691,-1.67479 1.647053,-3.20253 2.899838,-4.49662 z m 92.504805,-34.855629 0.5065,-0.523885 c 6.33552,-6.409172 14.92068,-10.086374 23.89301,-10.234286 8.97263,-0.147618 17.60935,3.246131 24.0371,9.445516 3.20488,3.095566 5.76244,6.797815 7.52708,10.894888 1.76464,4.09678 2.70133,8.508537 2.75673,12.983357 0.0556,4.474509 -0.77139,8.924279 -2.43321,13.095309 -1.66211,4.17073 -4.12655,7.98111 -7.25305,11.21339 -3.1271,3.2323 -6.85499,5.82284 -10.97093,7.62401 -4.11565,1.80089 -8.53861,2.77706 -13.01608,2.87253 -4.47777,0.0955 -8.92194,-0.69154 -13.07943,-2.31623 -4.15748,-1.62469 -7.94666,-4.05524 -11.15067,-7.15257 -6.41684,-6.21235 -10.10171,-14.7259 -10.25463,-23.69349 -0.15293,-8.967894 3.23818,-17.665595 9.43758,-24.208539 z"
     fill="#3c60ac"
     id="path1"
     style="stroke-width:2.94647" />
</svg>
